<svg xmlns="http://www.w3.org/2000/svg" viewBox="0 0 65.96 79.19"><defs><style>.cls-1{fill:#ffa800;fill-rule:evenodd;}</style></defs><g id="Layer_2" data-name="Layer 2"><g id="Layer_1-2" data-name="Layer 1"><path class="cls-1" d="M21.18,8.41C26.94,12.68,32.92,12.55,39,12c6.62-.63,13.32-1.84,19.06,1.37,9.73,5.41,1.55,19.54-4.83,32.48-5.4,11-9.66,21.41-1.77,30.39-5.64-4-9.51-6.63-11.73-10.58-2.4-4.29-1.89-10,0-16.4,2-6.91,5.73-15,9.17-22.48,5.31-11.54-15-7.56-16-7.62,7.66,9.51,4,17.13,1.12,24-2.63,6.29-4.67,12.14,3.1,21C32,59.58,27,58.14,22.51,57.06c-4.18-1-7.91-1.7-11.15-4.56-4.52-4-2.9-11.87-1.28-21.39C11.93,20.37,13.85,7.25,7.05,0c4.42,2,7.7,3.17,10,7.33,2.53,4.55,2.64,12,1.87,19.63-.73,7.12-2.22,14.21-3.27,19.77-1.38,7.19,10.83,6.84,11.37,7-6.53-8.46-4.37-14.58-2.17-21.21,2.43-7.27,4.91-15.21-3.69-24.13ZM4.28.47A3.37,3.37,0,0,0,.52,2.63C-1.3,6.7,1.78,16,7.87,26.52,5.44,21.29,6,15.4,6.49,10.4,7,5.15,7.41,1,4.28.47ZM56.07,78c5.43,2.5,9.09.88,9.77-3.69.72-4.75-1.82-12.5-8.62-21.16,1.92,3.23,1.25,7.88,0,12.1-1.18,4-2.83,7.61-3.3,9.46-.41,1.65-.09,2.25,2.14,3.29Z"/></g></g></svg>