<svg xmlns="http://www.w3.org/2000/svg" viewBox="0 0 274.23 85.14"><defs><style>.cls-1{fill:#fff;}.cls-2,.cls-3{fill:#ffa800;}.cls-3{fill-rule:evenodd;}</style></defs><g id="Layer_2" data-name="Layer 2"><g id="Layer_1-2" data-name="Layer 1"><path class="cls-1" d="M78.07,62.08H70.49V19.27h7.58Z"/><path class="cls-1" d="M89.34,62.08H82V30.7q5.6-2.13,14.63-2.13,13.89,0,13.9,13V62.08H103.3V41.74c0-2.22-.55-3.81-1.66-4.79a7.63,7.63,0,0,0-5.12-1.46,28.22,28.22,0,0,0-7.18.8Z"/><path class="cls-1" d="M121.82,62.08H114.5V30.7q5.59-2.13,14.63-2.13,13.89,0,13.9,13V62.08h-7.25V41.74c0-2.22-.56-3.81-1.66-4.79A7.63,7.63,0,0,0,129,35.49a28.17,28.17,0,0,0-7.18.8Z"/><path class="cls-1" d="M162,62.45q-15.3,0-15.3-17.15,0-8.11,3.93-12.6T162,28.21q15.23,0,15.22,17.09,0,8.1-3.89,12.63T162,62.45Zm0-27.33q-4.4,0-6.15,2.43t-1.77,7.75c0,3.54.59,6.14,1.77,7.78s3.22,2.46,6.15,2.46,5-.81,6.18-2.43,1.73-4.22,1.73-7.81-.58-6.13-1.73-7.75S165,35.12,162,35.12Z"/><path class="cls-1" d="M177,29.24h7.72l9.24,23.93,9.31-23.93h7.71L197.76,62.08h-7.64Z"/><path class="cls-2" d="M217.8,25.28A4.08,4.08,0,0,0,220.89,24a4.32,4.32,0,0,0,0-6.24,4.13,4.13,0,0,0-3.13-1.34,4.35,4.35,0,0,0-3.19,1.34,4.24,4.24,0,0,0-1.26,3.12A4.46,4.46,0,0,0,214.57,24,4.68,4.68,0,0,0,217.8,25.28Z"/><rect class="cls-1" x="214.11" y="29.24" width="7.31" height="32.84"/><path class="cls-1" d="M225.05,61.15l1.13-7a27.87,27.87,0,0,0,10.51,1.79,10.7,10.7,0,0,0,4.55-.8,2.51,2.51,0,0,0,1.7-2.32q0-2.6-6.19-3.93a30.06,30.06,0,0,1-3.95-.93,17.2,17.2,0,0,1-3.59-1.63,7.33,7.33,0,0,1-2.9-3,9.48,9.48,0,0,1-.93-4.59q0-10.11,13.57-10.11a23.31,23.31,0,0,1,9.64,2l-1.13,7.11a20.19,20.19,0,0,0-9.38-2.19c-3.54,0-5.32.95-5.32,2.86,0,1.59,2.07,2.86,6.19,3.79a30,30,0,0,1,3.92,1,18.65,18.65,0,0,1,3.59,1.66,7.5,7.5,0,0,1,2.86,3,9.55,9.55,0,0,1,1,4.48q0,10.57-14.7,10.58A33.19,33.19,0,0,1,225.05,61.15Z"/><path class="cls-1" d="M253.82,50.38V20.6h7.31v8.64H273v6.91H261.13v14.3q0,5.38,4.86,5.38a15.47,15.47,0,0,0,7.11-1.46l1.13,6.92a20.7,20.7,0,0,1-8.18,1.46Q253.82,62.75,253.82,50.38Z"/><path class="cls-3" d="M21.18,8.41C26.94,12.68,32.92,12.55,39,12c6.62-.63,13.32-1.84,19.06,1.37,9.73,5.41,1.55,19.54-4.83,32.48-5.4,11-9.66,21.41-1.77,30.39-5.64-4-9.51-6.63-11.73-10.58-2.4-4.29-1.89-10,0-16.4,2-6.91,5.73-15,9.17-22.48,5.31-11.54-15-7.56-16-7.62,7.66,9.51,4,17.13,1.12,24-2.63,6.29-4.67,12.14,3.1,21C32,59.58,27,58.14,22.51,57.06c-4.18-1-7.91-1.7-11.15-4.56-4.52-4-2.9-11.87-1.28-21.39C11.93,20.37,13.85,7.25,7.05,0c4.42,2,7.7,3.17,10,7.33,2.53,4.55,2.64,12,1.87,19.63-.73,7.12-2.22,14.21-3.27,19.77-1.38,7.19,10.83,6.84,11.37,7-6.53-8.46-4.37-14.58-2.17-21.21,2.43-7.27,4.91-15.21-3.69-24.13ZM4.28.47A3.37,3.37,0,0,0,.52,2.63C-1.3,6.7,1.78,16,7.87,26.52,5.44,21.29,6,15.4,6.49,10.4,7,5.15,7.41,1,4.28.47ZM56.07,78c5.43,2.5,9.09.88,9.77-3.69.72-4.75-1.82-12.5-8.62-21.16,1.92,3.23,1.25,7.88,0,12.1-1.18,4-2.83,7.61-3.3,9.46-.41,1.65-.09,2.25,2.14,3.29Z"/><path class="cls-2" d="M193.33,77.26a7,7,0,0,0,.92,4,3.59,3.59,0,0,0,3.16,1.31,6.46,6.46,0,0,0,3.81-1l.39,2.52a7.94,7.94,0,0,1-4.23,1q-3.49,0-5.18-1.89t-1.68-5.84q0-8.2,6.81-8.21a9,9,0,0,1,4.23,1.06l-.41,2.54a7.14,7.14,0,0,0-3.86-1.06,3.44,3.44,0,0,0-3,1.34A7.4,7.4,0,0,0,193.33,77.26Z"/><path class="cls-2" d="M206.79,84.87h-2.64V73.5a10,10,0,0,1,4.2-.72,9.65,9.65,0,0,1,2.45.28l-.43,2.48a5.36,5.36,0,0,0-1.85-.27,4.61,4.61,0,0,0-1.73.24Z"/><path class="cls-2" d="M221.86,78.06a6.07,6.07,0,0,1-.24,1.87h-7.39v.12a2.34,2.34,0,0,0,.84,1.91,3.79,3.79,0,0,0,2.42.68,8.3,8.3,0,0,0,3.58-.74l.41,2.49a9.6,9.6,0,0,1-4,.75,6,6,0,0,1-4.49-1.5A6.46,6.46,0,0,1,211.52,79a7.12,7.12,0,0,1,1.31-4.57,4.77,4.77,0,0,1,4-1.64,5,5,0,0,1,3.76,1.34A5.53,5.53,0,0,1,221.86,78.06Zm-7.63-.41v.12h5.11v-.12a2.28,2.28,0,0,0-2.59-2.57A2.25,2.25,0,0,0,214.23,77.65Z"/><path class="cls-2" d="M233.62,77.07v7.32a13.53,13.53,0,0,1-4.73.75q-4.89,0-4.89-3.75c0-2.48,1.61-3.72,4.85-3.72H231v-.89c0-1.07-.84-1.6-2.5-1.6a9.12,9.12,0,0,0-3.29.55l-.38-2.4a14.12,14.12,0,0,1,3.79-.55Q233.63,72.78,233.62,77.07ZM231,82.64v-3h-2.19a2.91,2.91,0,0,0-1.67.37,1.43,1.43,0,0,0-.51,1.24,1.39,1.39,0,0,0,.5,1.24,3,3,0,0,0,1.66.34A8.51,8.51,0,0,0,231,82.64Z"/><path class="cls-2" d="M236.17,80.65V69.9h2.64V73h4.27v2.49h-4.27v5.16c0,1.3.58,2,1.75,2a5.65,5.65,0,0,0,2.57-.53l.4,2.49a7.27,7.27,0,0,1-2.95.53Q236.17,85.11,236.17,80.65Z"/><path class="cls-2" d="M246,70.45a1.64,1.64,0,0,1-.46-1.15,1.55,1.55,0,0,1,.46-1.13,1.56,1.56,0,0,1,1.15-.48,1.49,1.49,0,0,1,1.13.48,1.56,1.56,0,0,1,0,2.25,1.48,1.48,0,0,1-1.12.48A1.69,1.69,0,0,1,246,70.45Zm2.47,14.42h-2.64V73h2.64Z"/><path class="cls-2" d="M250.37,73h2.79l3.33,8.64L259.85,73h2.79l-4.75,11.85h-2.76Z"/><path class="cls-2" d="M274.16,78.06a6.07,6.07,0,0,1-.24,1.87h-7.39v.12a2.36,2.36,0,0,0,.83,1.91,3.82,3.82,0,0,0,2.43.68,8.28,8.28,0,0,0,3.57-.74l.41,2.49a9.52,9.52,0,0,1-4,.75,6,6,0,0,1-4.49-1.5A6.42,6.42,0,0,1,263.81,79a7.18,7.18,0,0,1,1.31-4.57,4.78,4.78,0,0,1,4-1.64,4.91,4.91,0,0,1,3.75,1.34A5.48,5.48,0,0,1,274.16,78.06Zm-7.63-.41v.12h5.11v-.12a2.28,2.28,0,0,0-2.59-2.57A2.25,2.25,0,0,0,266.53,77.65Z"/></g></g></svg>